<?xml version="1.0" encoding="utf-8"?>
<!-- Generator: Adobe Illustrator 15.1.0, SVG Export Plug-In . SVG Version: 6.00 Build 0)  -->
<!DOCTYPE svg PUBLIC "-//W3C//DTD SVG 1.1//EN" "http://www.w3.org/Graphics/SVG/1.1/DTD/svg11.dtd">
<svg version="1.1" id="Calque_1" xmlns="http://www.w3.org/2000/svg" xmlns:xlink="http://www.w3.org/1999/xlink" x="0px" y="0px"
	 width="150px" height="100px" viewBox="0 0 150 100" enable-background="new 0 0 150 100" xml:space="preserve">
<g>
	<g>
		<path fill="#FECB10" d="M99.112,25.089c5.414-6.753,11.488-7.486,16.249-6.504c2.262,5.666,1.493,12.35-2.596,17.451
			c-6.046,7.541-17.061,8.753-24.603,2.707c-2.391-1.915-4.143-4.331-5.229-6.976C87.72,32.622,93.766,31.755,99.112,25.089z"/>
		
			<linearGradient id="SVGID_1_" gradientUnits="userSpaceOnUse" x1="-901.3677" y1="524.8291" x2="-922.2711" y2="496.1334" gradientTransform="matrix(-0.6255 0.7802 0.7802 0.6255 -869.5479 417.2559)">
			<stop  offset="0" style="stop-color:#FFFFFF"/>
			<stop  offset="0.1107" style="stop-color:#FFFBEC"/>
			<stop  offset="0.3348" style="stop-color:#FFF0BC"/>
			<stop  offset="0.6523" style="stop-color:#FEDF6D"/>
			<stop  offset="1" style="stop-color:#FECB10"/>
		</linearGradient>
		<path fill="url(#SVGID_1_)" d="M99.112,25.089c-5.347,6.666-11.393,7.533-16.178,6.678c-2.35-5.703-1.607-12.475,2.523-17.626
			c6.046-7.542,17.063-8.756,24.603-2.71c2.44,1.957,4.214,4.438,5.301,7.154C110.601,17.603,104.526,18.335,99.112,25.089z"/>
	</g>
	<g>
		
			<linearGradient id="SVGID_2_" gradientUnits="userSpaceOnUse" x1="65.0068" y1="36.5107" x2="75.5467" y2="63.4876" gradientTransform="matrix(1 -6.000000e-04 6.000000e-04 1 0.3677 -0.5376)">
			<stop  offset="0" style="stop-color:#2E2E2C"/>
			<stop  offset="1" style="stop-color:#575656"/>
		</linearGradient>
		<path fill="url(#SVGID_2_)" d="M61.169,40.555L33.635,51.779L99.13,51.74l-0.018-26.654C90.312,32.96,87.4,43.109,61.169,40.555z"
			/>
		
			<linearGradient id="SVGID_3_" gradientUnits="userSpaceOnUse" x1="86.5449" y1="47.9033" x2="80.0204" y2="33.9761" gradientTransform="matrix(1 -6.000000e-04 6.000000e-04 1 0.3677 -0.5376)">
			<stop  offset="0" style="stop-color:#FFFFFF"/>
			<stop  offset="1" style="stop-color:#575656"/>
		</linearGradient>
		<path fill="url(#SVGID_3_)" d="M99.112,25.086L61.169,40.555C87.4,43.109,90.312,32.96,99.112,25.086z"/>
	</g>
	<path fill="#575656" d="M21.588,88.283l-0.005-10.312c-0.002-1.447-0.271-2.775-0.801-4.006c-0.542-1.244-1.273-2.324-2.206-3.258
		c-0.935-0.933-2.016-1.662-3.261-2.199c-1.231-0.53-2.558-0.799-4.006-0.798v-0.003c-1.412,0.004-2.733,0.271-3.983,0.805
		c-1.262,0.54-2.36,1.273-3.308,2.209c-0.95,0.933-1.686,2.014-2.221,3.256C1.265,75.207,1,76.535,1,77.982
		c0.002,1.413,0.268,2.736,0.804,3.984c0.537,1.26,1.276,2.354,2.228,3.303c0.949,0.949,2.045,1.688,3.307,2.225
		c1.25,0.533,2.57,0.797,3.983,0.795c0,0,3.61,0.27,5.038-0.414c0.704-0.336,3.293-2.054,3.486-3.362
		c0.124-0.837-0.824-3.491-1.133-2.704c-0.322,0.821-1.363,2.756-3.812,3.344c-1.73,0.414-3.581,0.185-3.581,0.185
		c-1.001,0.001-1.965-0.186-2.867-0.565c-0.896-0.375-1.687-0.9-2.354-1.571C5.427,82.533,4.9,81.74,4.524,80.85
		c-0.381-0.903-0.569-1.867-0.57-2.868c0-1.001,0.188-1.958,0.569-2.851c0.374-0.875,0.899-1.657,1.568-2.324
		c0.667-0.67,1.457-1.195,2.353-1.571c0.901-0.382,1.865-0.571,2.866-0.572c1.002-0.001,1.959,0.188,2.85,0.571
		c0.876,0.374,1.658,0.899,2.326,1.566c0.666,0.666,1.192,1.447,1.569,2.324c0.383,0.89,0.573,1.847,0.573,2.848l0.004,6.658
		l0.003,3.693L21.588,88.283z"/>
	<path fill="#575656" d="M148.547,88.18l-0.005-10.312c-0.002-1.448-0.271-2.775-0.802-4.006c-0.541-1.244-1.272-2.324-2.205-3.258
		c-0.935-0.934-2.017-1.662-3.262-2.199c-1.23-0.531-2.557-0.799-4.006-0.799v-0.002c-1.412,0.004-2.732,0.271-3.982,0.805
		c-1.262,0.539-2.36,1.272-3.309,2.209c-0.949,0.932-1.685,2.014-2.221,3.256c-0.532,1.23-0.797,2.559-0.798,4.006
		c0.002,1.412,0.269,2.735,0.804,3.984c0.538,1.259,1.276,2.354,2.229,3.303c0.949,0.948,2.045,1.688,3.306,2.225
		c1.251,0.533,2.571,0.796,3.984,0.795c0,0,3.61,0.27,5.038-0.414c0.703-0.336,3.293-2.055,3.486-3.363
		c0.124-0.836-0.824-3.49-1.133-2.704c-0.323,0.821-1.364,2.757-3.812,3.345c-1.73,0.414-3.581,0.185-3.581,0.185
		c-1.002,0.001-1.966-0.187-2.868-0.566c-0.895-0.374-1.686-0.899-2.354-1.57c-0.671-0.667-1.196-1.46-1.572-2.351
		c-0.381-0.904-0.569-1.867-0.57-2.869c0-1.001,0.188-1.958,0.569-2.85c0.374-0.876,0.898-1.657,1.567-2.324
		c0.668-0.67,1.458-1.196,2.353-1.572c0.902-0.381,1.866-0.571,2.867-0.572c1.002,0,1.959,0.188,2.85,0.572
		c0.876,0.373,1.658,0.898,2.326,1.565c0.666,0.667,1.191,1.448,1.569,2.325c0.383,0.889,0.573,1.846,0.573,2.848l0.004,6.658
		l0.002,3.692L148.547,88.18z"/>
	<path fill="#575656" d="M26.338,73.921c-0.528,1.233-0.796,2.56-0.796,4.007l0.006,10.314l2.954-0.002l-0.006-10.314
		c-0.001-1,0.188-1.955,0.569-2.849c0.374-0.878,0.899-1.656,1.567-2.323c0.665-0.668,1.444-1.195,2.323-1.572
		c0.89-0.379,1.846-0.572,2.85-0.572c0.999,0,1.963,0.191,2.866,0.569c0.894,0.372,1.688,0.899,2.354,1.569
		c0.667,0.666,1.194,1.444,1.572,2.324c0.381,0.89,0.571,1.846,0.571,2.845l0.006,10.315l2.953-0.002l-0.006-10.314
		c-0.001-1.447-0.269-2.773-0.803-4.006c-0.536-1.24-1.274-2.318-2.222-3.252c-0.953-0.934-2.044-1.666-3.289-2.203
		c-1.232-0.53-2.562-0.799-4.006-0.801c-1.414,0.004-2.734,0.271-3.984,0.805c-1.262,0.539-2.35,1.272-3.28,2.204
		c-0.933,0.935-1.663,2.013-2.198,3.258"/>
	<path fill="#575656" d="M53.162,58.783l-2.953,0.002l0.011,19.081c0.003,1.412,0.27,2.735,0.804,3.983
		c0.539,1.26,1.277,2.354,2.227,3.304c0.95,0.948,2.048,1.687,3.307,2.224c1.251,0.533,2.572,0.797,3.984,0.799l1.453-0.001
		l-0.002-2.956l-1.452,0.002c-1.002,0-1.966-0.187-2.868-0.566c-0.895-0.374-1.688-0.9-2.354-1.57
		c-0.672-0.667-1.198-1.461-1.574-2.354c-0.381-0.9-0.57-1.865-0.57-2.866l-0.002-2.908l8.814-0.005l-0.001-2.95l-8.815,0.005
		L53.162,58.783z"/>
	<rect x="66.232" y="67.587" fill="#575656" width="2.906" height="20.584"/>
	<path fill="#575656" d="M78.3,72.702c0.714-0.717,1.532-1.265,2.439-1.628c0.892-0.355,1.816-0.541,2.759-0.541
		c0.938-0.001,1.862,0.184,2.756,0.538c0.908,0.362,1.728,0.909,2.434,1.615l1.066,1.034l2.055-2.094l-1.025-1.026
		c-1.014-1.015-2.146-1.763-3.41-2.265c-1.277-0.508-2.564-0.758-3.877-0.756c-1.317,0-2.603,0.251-3.879,0.76
		c-1.266,0.504-2.396,1.254-3.41,2.27s-1.756,2.139-2.24,3.385c-0.489,1.26-0.732,2.548-0.733,3.882
		c0.003,1.334,0.247,2.622,0.739,3.884c0.484,1.244,1.227,2.364,2.243,3.38c1.017,1.015,2.146,1.765,3.413,2.267
		c1.276,0.504,2.562,0.754,3.879,0.756c1.312-0.004,2.6-0.254,3.877-0.76c1.263-0.504,2.395-1.256,3.41-2.271l1.023-1.026
		l-2.06-2.091l-1.045,1.012c-0.686,0.724-1.493,1.278-2.402,1.643c-0.898,0.357-1.839,0.538-2.806,0.539
		c-1.996,0.008-3.782-0.732-5.2-2.16c-0.716-0.713-1.264-1.533-1.627-2.438c-0.356-0.894-0.54-1.82-0.54-2.758
		c-0.002-0.938,0.182-1.865,0.537-2.76C77.04,74.184,77.59,73.374,78.3,72.702z"/>
	<rect x="96.493" y="67.569" fill="#575656" width="2.904" height="20.584"/>
	<path fill="#575656" d="M106.493,70.664c-0.933,0.937-1.663,2.018-2.201,3.261c-0.529,1.231-0.797,2.56-0.796,4.008l0.011,19.13
		l2.954-0.001l-0.005-8.813l7.312-0.005c1.447-0.001,2.774-0.271,4.005-0.802c1.243-0.541,2.331-1.279,3.283-2.23
		c0.945-0.951,1.686-2.046,2.223-3.305c0.532-1.253,0.798-2.574,0.798-3.986c-0.002-1.447-0.271-2.775-0.801-4.006
		c-0.538-1.242-1.277-2.318-2.224-3.254c-0.953-0.933-2.044-1.664-3.29-2.204c-1.231-0.53-2.559-0.796-4.006-0.796l0,0
		c-1.414,0.002-2.734,0.27-3.983,0.803C108.51,69.005,107.424,69.734,106.493,70.664z M116.633,84.717
		c-0.898,0.377-1.857,0.57-2.855,0.571c-0.004,0-0.007,0-0.01,0l-7.313,0.005l-0.004-7.362c-0.002-1.001,0.188-1.958,0.566-2.847
		c0.378-0.877,0.902-1.66,1.571-2.327c0.665-0.667,1.443-1.194,2.322-1.571c0.89-0.381,1.846-0.572,2.849-0.572
		c1.001,0,1.964,0.188,2.867,0.566c0.894,0.376,1.685,0.902,2.354,1.57c0.667,0.666,1.194,1.446,1.571,2.326
		c0.382,0.889,0.572,1.846,0.573,2.846c0,1.002-0.189,1.965-0.567,2.867c-0.376,0.896-0.902,1.685-1.571,2.357
		C118.317,83.815,117.526,84.34,116.633,84.717"/>
	<rect x="66.222" y="58.97" fill="#575656" width="2.904" height="2.906"/>
	<rect x="96.483" y="58.952" fill="#575656" width="2.904" height="2.905"/>
	<g>
		<path fill="#FECB10" d="M120.857,20.78c2.232-2.785,4.736-3.086,6.699-2.683c0.932,2.337,0.616,5.093-1.07,7.196
			c-2.492,3.111-7.034,3.609-10.145,1.117c-0.983-0.791-1.706-1.787-2.153-2.877C116.161,23.885,118.652,23.528,120.857,20.78z"/>
		
			<linearGradient id="SVGID_4_" gradientUnits="userSpaceOnUse" x1="-924.522" y1="530.6602" x2="-933.1398" y2="518.8298" gradientTransform="matrix(-0.6255 0.7802 0.7802 0.6255 -869.5479 417.2559)">
			<stop  offset="0" style="stop-color:#FFFFFF"/>
			<stop  offset="0.1107" style="stop-color:#FFFBEC"/>
			<stop  offset="0.3348" style="stop-color:#FFF0BC"/>
			<stop  offset="0.6523" style="stop-color:#FEDF6D"/>
			<stop  offset="1" style="stop-color:#FECB10"/>
		</linearGradient>
		<path fill="url(#SVGID_4_)" d="M120.857,20.78c-2.205,2.749-4.696,3.105-6.669,2.753c-0.969-2.35-0.665-5.141,1.04-7.267
			c2.493-3.108,7.035-3.61,10.143-1.117c1.006,0.809,1.737,1.831,2.186,2.949C125.594,17.694,123.09,17.995,120.857,20.78z"/>
	</g>
	<g>
		<path fill="#FECB10" d="M132.321,7.548c1.229-1.533,2.607-1.7,3.688-1.476c0.513,1.287,0.338,2.804-0.59,3.961
			c-1.372,1.713-3.873,1.989-5.586,0.616c-0.541-0.436-0.939-0.985-1.188-1.586C129.732,9.259,131.106,9.062,132.321,7.548z"/>
		
			<linearGradient id="SVGID_5_" gradientUnits="userSpaceOnUse" x1="-943.9668" y1="528.666" x2="-948.7128" y2="522.1509" gradientTransform="matrix(-0.6255 0.7802 0.7802 0.6255 -869.5479 417.2559)">
			<stop  offset="0" style="stop-color:#FFFFFF"/>
			<stop  offset="0.1107" style="stop-color:#FFFBEC"/>
			<stop  offset="0.3348" style="stop-color:#FFF0BC"/>
			<stop  offset="0.6523" style="stop-color:#FEDF6D"/>
			<stop  offset="1" style="stop-color:#FECB10"/>
		</linearGradient>
		<path fill="url(#SVGID_5_)" d="M132.321,7.548c-1.215,1.514-2.589,1.711-3.675,1.515c-0.532-1.292-0.365-2.83,0.574-4
			c1.372-1.713,3.873-1.988,5.585-0.615c0.555,0.445,0.957,1.008,1.204,1.625C134.929,5.848,133.55,6.015,132.321,7.548z"/>
	</g>
	<g>
		<g>
			<path fill="#E56729" d="M3.152,92.674l0.003,4.395H2.637l-0.003-4.395l-1.405,0.001v-0.464l3.329-0.002v0.464L3.152,92.674z"/>
			<path fill="#E56729" d="M6.897,97.065l-0.003-4.857l3.016-0.001v0.463l-2.497,0.002l0.001,1.713l2.129-0.002v0.463l-2.129,0.002
				l0.002,1.754L9.912,96.6l0.001,0.464L6.897,97.065z"/>
			<path fill="#E56729" d="M14.21,97.103c-0.478,0.001-0.914-0.177-1.241-0.505c-0.458-0.456-0.458-0.934-0.458-1.964
				c-0.001-1.03-0.001-1.508,0.455-1.966c0.327-0.327,0.764-0.505,1.241-0.506c0.873,0,1.521,0.532,1.687,1.447h-0.532
				c-0.13-0.595-0.547-0.982-1.154-0.982c-0.32,0-0.627,0.123-0.838,0.342c-0.308,0.313-0.341,0.647-0.341,1.664
				c0.001,1.017,0.035,1.352,0.343,1.665c0.211,0.218,0.519,0.341,0.839,0.341c0.607,0,1.036-0.391,1.166-0.983l0.519-0.001
				C15.738,96.569,15.077,97.102,14.21,97.103z"/>
			<path fill="#E56729" d="M20.516,97.057l-0.001-2.217l-2.307,0.001l0.002,2.218h-0.519l-0.003-4.857h0.519l0.001,2.176
				l2.307-0.001L20.513,92.2l0.519-0.001l0.003,4.857H20.516z"/>
			<path fill="#E56729" d="M27.109,97.053l-2.581-3.893l0.002,3.895h-0.519l-0.003-4.857H24.5l2.581,3.881l-0.002-3.882l0.519-0.001
				l0.003,4.857H27.109z"/>
			<path fill="#E56729" d="M33.31,96.586c-0.327,0.328-0.757,0.506-1.241,0.506s-0.914-0.178-1.241-0.505
				c-0.458-0.456-0.458-0.935-0.459-1.964c0-1.03-0.001-1.508,0.456-1.965c0.327-0.328,0.757-0.506,1.241-0.506
				s0.915,0.176,1.242,0.504c0.457,0.457,0.458,0.935,0.458,1.965C33.767,95.65,33.767,96.129,33.31,96.586z M32.905,92.963
				c-0.211-0.218-0.519-0.347-0.839-0.347s-0.628,0.13-0.84,0.349c-0.307,0.313-0.34,0.641-0.34,1.658
				c0.001,1.016,0.035,1.343,0.342,1.657c0.212,0.218,0.52,0.348,0.84,0.347c0.32,0,0.628-0.13,0.839-0.348
				c0.307-0.314,0.341-0.642,0.34-1.658C33.247,93.604,33.213,93.277,32.905,92.963z"/>
			<path fill="#E56729" d="M38.224,95.049h-1.289l0.001,1.999h-0.519l-0.003-4.856l1.808-0.002c0.888,0,1.502,0.551,1.502,1.425
				C39.725,94.487,39.11,95.047,38.224,95.049z M38.175,92.653l-1.241,0.001l0.001,1.93h1.241c0.607,0,1.03-0.328,1.029-0.969
				C39.205,92.974,38.782,92.652,38.175,92.653z"/>
			<path fill="#E56729" d="M45.02,96.579c-0.327,0.328-0.757,0.505-1.241,0.506s-0.914-0.177-1.241-0.505
				c-0.458-0.456-0.458-0.934-0.459-1.964c0-1.03-0.001-1.509,0.456-1.966c0.327-0.327,0.757-0.505,1.241-0.505
				c0.484-0.001,0.914,0.177,1.242,0.504c0.457,0.457,0.458,0.935,0.458,1.965C45.477,95.645,45.477,96.122,45.02,96.579z
				 M44.615,92.957c-0.211-0.219-0.519-0.348-0.84-0.348c-0.32,0-0.627,0.129-0.839,0.349c-0.307,0.313-0.341,0.641-0.34,1.657
				s0.035,1.344,0.342,1.658c0.212,0.218,0.52,0.348,0.84,0.348s0.628-0.131,0.839-0.349c0.307-0.314,0.341-0.642,0.34-1.658
				C44.957,93.598,44.923,93.27,44.615,92.957z"/>
			<path fill="#E56729" d="M47.888,97.041l-0.003-4.857h0.519l0.003,4.393l2.483-0.001v0.464L47.888,97.041z"/>
			<path fill="#E56729" d="M53.227,97.038l-0.003-4.857l3.015-0.001l0.001,0.463l-2.497,0.002l0.001,1.713l2.128-0.002l0.001,0.463
				l-2.129,0.002l0.001,1.754l2.497-0.002v0.464L53.227,97.038z"/>
			<path fill="#E56729" d="M62.033,97.018l-0.003-4.856l0.519-0.001l0.003,4.394l2.483-0.001v0.463L62.033,97.018z"/>
			<path fill="#E56729" d="M70.682,97.014l-0.389-1.098h-2.122l-0.389,1.1h-0.553l1.785-4.858h0.437l1.783,4.856H70.682z
				 M69.24,92.9l-0.913,2.566l1.814-0.002L69.24,92.9z"/>
			<path fill="#E56729" d="M76.785,97.01l-2.581-3.894l0.002,3.896h-0.519l-0.002-4.857h0.491l2.581,3.88l-0.003-3.882h0.519
				l0.003,4.857H76.785z"/>
			<path fill="#E56729" d="M83.208,97.006l-2.582-3.894l0.003,3.896H80.11l-0.003-4.857h0.491l2.581,3.881l-0.002-3.883h0.519
				l0.003,4.857H83.208z"/>
			<path fill="#E56729" d="M86.652,97.004l-0.003-4.857h0.519l0.003,4.857H86.652z"/>
			<path fill="#E56729" d="M93.002,96.537c-0.327,0.328-0.757,0.506-1.241,0.506s-0.914-0.178-1.242-0.505
				c-0.457-0.456-0.457-0.935-0.458-1.964c-0.001-1.031-0.001-1.508,0.456-1.966c0.327-0.327,0.757-0.505,1.241-0.506
				c0.484,0,0.914,0.177,1.242,0.505c0.457,0.457,0.457,0.935,0.458,1.965C93.458,95.602,93.459,96.08,93.002,96.537z
				 M92.598,92.914c-0.212-0.219-0.52-0.348-0.84-0.348c-0.32,0.001-0.627,0.131-0.839,0.35c-0.307,0.313-0.341,0.641-0.34,1.657
				c0,1.017,0.034,1.344,0.342,1.657c0.212,0.219,0.519,0.348,0.839,0.348c0.321,0,0.628-0.13,0.84-0.348
				c0.307-0.314,0.34-0.643,0.34-1.658C92.938,93.555,92.904,93.229,92.598,92.914z"/>
			<path fill="#E56729" d="M98.848,96.997l-2.581-3.894l0.002,3.895l-0.519,0.001l-0.003-4.857h0.491l2.582,3.88l-0.003-3.882h0.519
				l0.003,4.856L98.848,96.997z"/>
		</g>
		<path fill="#E56729" d="M111.61,96.494c-0.335,0.361-0.783,0.549-1.272,0.549c-0.468,0-0.896-0.174-1.219-0.494
			c-0.448-0.449-0.448-0.918-0.449-1.929c0-1.011,0-1.479,0.447-1.927c0.321-0.323,0.743-0.498,1.218-0.498
			c0.911,0,1.527,0.589,1.668,1.426h-0.509c-0.134-0.604-0.562-0.97-1.158-0.97c-0.314,0.001-0.616,0.127-0.823,0.343
			c-0.302,0.307-0.335,0.628-0.334,1.626c0.001,0.997,0.034,1.325,0.336,1.634c0.208,0.213,0.509,0.334,0.823,0.334
			c0.348-0.001,0.683-0.143,0.903-0.41c0.194-0.233,0.268-0.494,0.267-0.863v-0.36l-1.171,0.001v-0.449l1.681-0.001v0.757
			C112.018,95.811,111.904,96.178,111.61,96.494z"/>
		<path fill="#E56729" d="M115.627,97.043c-0.974,0-1.677-0.67-1.677-1.629l-0.002-3.223h0.514l0.002,3.182
			c0,0.73,0.46,1.209,1.163,1.209c0.702,0,1.168-0.48,1.168-1.21l-0.002-3.183h0.514l0.002,3.223
			C117.309,96.371,116.6,97.042,115.627,97.043z"/>
		<path fill="#E56729" d="M119.526,97.037l-0.003-4.847l0.517-0.001l0.003,4.848H119.526z"/>
		<path fill="#E56729" d="M125.531,97.034l-2.576-3.886l0.003,3.887l-0.518,0.001l-0.003-4.848l0.49-0.001l2.576,3.873l-0.003-3.874
			h0.518l0.003,4.847L125.531,97.034z"/>
		<path fill="#E56729" d="M131.104,96.477c-0.342,0.37-0.801,0.562-1.301,0.562c-0.479,0-0.917-0.178-1.246-0.506
			c-0.459-0.459-0.459-0.938-0.459-1.973c-0.001-1.033-0.001-1.514,0.456-1.971c0.329-0.33,0.761-0.508,1.246-0.509
			c0.932-0.001,1.562,0.603,1.706,1.458h-0.521c-0.137-0.616-0.575-0.992-1.185-0.991c-0.322,0-0.63,0.129-0.843,0.349
			c-0.308,0.315-0.342,0.645-0.341,1.664c0.001,1.021,0.035,1.355,0.343,1.671c0.213,0.218,0.521,0.341,0.843,0.341
			c0.355,0,0.698-0.145,0.924-0.418c0.198-0.239,0.273-0.506,0.273-0.883L131,94.902l-1.197,0.001v-0.459l1.718-0.001l0.001,0.773
			C131.521,95.778,131.405,96.154,131.104,96.477z"/>
		<path fill="#E56729" d="M136.562,97.044l-0.394-1.11l-2.146,0.002l-0.393,1.109l-0.559,0.001l1.805-4.913h0.441l1.803,4.91
			L136.562,97.044z M135.104,92.886l-0.923,2.595l1.835-0.002L135.104,92.886z"/>
		<path fill="#E56729" d="M142.676,97.094l-0.003-3.808l-1.37,3.021l-0.458,0.001l-1.396-3.021l0.003,3.809l-0.535,0.001
			l-0.003-5.012l0.535-0.001l1.635,3.555l1.589-3.557h0.535l0.003,5.012H142.676z"/>
		<path fill="#E56729" d="M146.928,95.043h-1.337l0.001,2.073l-0.537,0.001l-0.003-5.036l1.874-0.001
			c0.919,0,1.557,0.571,1.557,1.477C148.483,94.462,147.847,95.042,146.928,95.043z M146.876,92.562l-1.287,0.001l0.001,2.001
			l1.288-0.001c0.629,0,1.067-0.34,1.067-1.006C147.944,92.893,147.506,92.562,146.876,92.562z"/>
	</g>
</g>
</svg>
